# xmcd
#
# Track frame offsets:
#	150
#	36062
#	81937
#	106205
#	156675
#	222230
#	261355
#	302137
#
# Disc length: 4567 seconds
#
# Revision: 1
# Processed by: cddbd v1.5.1PL0 Copyright (c) Steve Scherf et al.
# Submitted via: CDex 1.50Beta5
#
DISCID=6e11d508
DTITLE=Claudio Abbado - SYMPHONIES NOS.5&7
DYEAR=1900
DGENRE=Classical
TTITLE0=第5番 ハ短調 作品67《運命》第1楽章
TTITLE1=第5番 ハ短調 《運命》 第2楽章
TTITLE2=第5番 ハ短調 《運命》 第3楽章
TTITLE3=第5番 ハ短調 《運命》 第4楽章
TTITLE4=第7番 イ長調 作品92第1楽章
TTITLE5=第7番 イ長調 作品92第2楽章
TTITLE6=第7番 イ長調 作品92第3楽章
TTITLE7=第7番 イ長調 作品92第4楽章
EXTD=
EXTT0=
EXTT1=
EXTT2=
EXTT3=
EXTT4=
EXTT5=
EXTT6=
EXTT7=
PLAYORDER=
